# This file uses centimeters as units for non-parametric coordinates.

mtllib holy_arena.mtl
g default
v 3.062093 0.564564 -2.815501
v 1.557393 0.564564 -4.320202
v -0.498065 0.564564 -4.870960
v -2.553523 0.564564 -4.320202
v -4.058224 0.564564 -2.815501
v -4.608981 0.564564 -0.760043
v -4.058224 0.564564 1.295415
v -2.553523 0.564564 2.800115
v -0.498065 0.564564 3.350873
v 1.557393 0.564564 2.800115
v 3.062093 0.564564 1.295415
v 3.612851 0.564564 -0.760043
v 3.062093 0.770110 -2.815501
v 1.557393 0.770110 -4.320202
v -0.498065 0.770110 -4.870960
v -2.553523 0.770110 -4.320202
v -4.058224 0.770110 -2.815501
v -4.608981 0.770110 -0.760043
v -4.058224 0.770110 1.295415
v -2.553523 0.770110 2.800115
v -0.498065 0.770110 3.350873
v 1.557393 0.770110 2.800115
v 3.062093 0.770110 1.295415
v 3.612851 0.770110 -0.760043
v 17.804679 0.167337 -11.327139
v 10.069030 0.167337 -19.062787
v 10.069030 1.167337 -19.062787
v 17.804679 1.167337 -11.327139
v -0.498065 0.167337 -21.894233
v -0.498065 1.167337 -21.894233
v -11.065161 0.167337 -19.062787
v -11.065161 1.167337 -19.062787
v -18.800809 0.167337 -11.327139
v -18.800809 1.167337 -11.327139
v -21.632255 0.167337 -0.760043
v -21.632255 1.167337 -0.760043
v -18.800809 0.167337 9.807052
v -18.800809 1.167337 9.807052
v -11.065161 0.292128 17.542700
v -11.065161 1.167337 17.542700
v -0.498065 0.292128 20.374146
v -0.498065 1.167337 20.374146
v 10.069030 0.292128 17.542700
v 10.069030 1.167337 17.542700
v 17.804679 0.167337 9.807052
v 17.804679 1.167337 9.807052
v 20.636124 0.167337 -0.760043
v 20.636124 1.167337 -0.760043
v 17.804679 22.221315 -11.327139
v 10.069030 22.221315 -19.062787
v 10.069030 23.379129 -19.062787
v 17.804679 23.379129 -11.327139
v -0.498065 22.221315 -21.894233
v -0.498065 23.379129 -21.894233
v -11.065161 22.221315 -19.062787
v -11.065161 23.379129 -19.062787
v -18.800809 22.221315 -11.327139
v -18.800809 23.379129 -11.327139
v -21.632255 22.221315 -0.760043
v -21.632255 23.379129 -0.760043
v -18.800809 22.221315 9.807052
v -18.800809 23.379129 9.807052
v -11.065161 8.394731 17.542700
v -11.065161 8.820112 17.542700
v -0.498065 8.394731 20.374146
v -0.498065 8.820112 20.374146
v 10.069030 8.394731 17.542700
v 10.069030 8.820112 17.542700
v 17.804679 22.221315 9.807052
v 17.804679 23.379129 9.807052
v 20.636124 22.221315 -0.760043
v 20.636124 23.379129 -0.760043
vt 1.166698 0.950120
vt 1.166698 1.000000
vt -0.499968 0.950120
vt -0.499968 1.000000
vt -0.333301 0.950120
vt -0.333301 1.000000
vt -0.166635 0.950120
vt -0.166635 1.000000
vt 0.000032 0.950120
vt 0.000032 1.000000
vt 0.166699 0.950120
vt 0.166699 1.000000
vt 0.333365 0.354449
vt 0.333365 0.372775
vt 0.500032 0.354449
vt 0.500032 0.372775
vt 0.666699 0.354449
vt 0.666699 0.372775
vt 0.833365 0.950120
vt 0.833365 1.000000
vt 1.000032 0.950120
vt 1.000032 1.000000
vt 0.584228 0.548629
vt 1.333365 -0.000000
vt 1.166698 -0.000000
vt 0.548629 0.584228
vt 0.750000 0.933013
vt 1.166698 0.043082
vt 0.933013 0.750000
vt -0.499968 -0.000000
vt 0.548629 0.584228
vt -0.499968 0.043082
vt 0.584228 0.548629
vt -0.333301 -0.000000
vt 0.933013 0.750000
vt -0.333301 0.043082
vt 0.750000 0.933013
vt -0.166635 -0.000000
vt 0.500000 0.597257
vt -0.166635 0.043082
vt 0.500000 1.000000
vt 0.000032 -0.000000
vt 0.500000 0.597257
vt 0.000032 0.043082
vt 0.500000 1.000000
vt 0.166699 -0.000000
vt 0.451371 0.584228
vt 0.166699 0.043082
vt 0.250000 0.933013
vt 0.333365 0.005376
vt 0.451371 0.584228
vt 0.333365 0.043082
vt 0.250000 0.933013
vt 0.500032 0.005376
vt 0.415773 0.548629
vt 0.500032 0.043082
vt 0.066987 0.750000
vt 0.666699 0.005376
vt 0.415773 0.548629
vt 0.666699 0.043082
vt 0.066987 0.750000
vt 0.833365 -0.000000
vt 0.402743 0.500000
vt 0.833365 0.043082
vt 0.000000 0.500000
vt 1.000032 -0.000000
vt 0.402743 0.500000
vt 1.000032 0.043082
vt 1.333365 0.950120
vt 1.500032 0.950120
vt 0.000000 0.500000
vt 0.415773 0.451371
vt 0.066987 0.250000
vt 1.500032 0.043082
vt 1.500032 -0.000000
vt 1.333365 0.043082
vt 1.333365 1.000000
vt 1.500032 1.000000
vt 0.415773 0.451371
vt 0.066987 0.250000
vt 0.451371 0.415773
vt 0.250000 0.066987
vt 0.451371 0.415773
vt 0.250000 0.066987
vt 0.500000 0.402743
vt 0.500000 0.000000
vt 0.500000 0.402743
vt 0.500000 0.000000
vt 0.548629 0.415773
vt 0.750000 0.066987
vt 0.548629 0.415773
vt 0.750000 0.066987
vt 0.584228 0.451371
vt 0.933013 0.250000
vt 0.584228 0.451371
vt 0.933013 0.250000
vt 0.597258 0.500000
vt 1.000000 0.500000
vt 0.597258 0.500000
vt 1.000000 0.500000
vn 0.707107 0.000000 -0.707107
vn 0.707107 0.000000 -0.707107
vn 0.707107 0.000000 -0.707107
vn 0.707107 0.000000 -0.707107
vn 0.258819 0.000000 -0.965926
vn 0.258819 0.000000 -0.965926
vn 0.258819 0.000000 -0.965926
vn 0.258819 0.000000 -0.965926
vn -0.258819 0.000000 -0.965926
vn -0.258819 0.000000 -0.965926
vn -0.258819 0.000000 -0.965926
vn -0.258819 0.000000 -0.965926
vn -0.707107 0.000000 -0.707107
vn -0.707107 0.000000 -0.707107
vn -0.707107 0.000000 -0.707107
vn -0.707107 0.000000 -0.707107
vn -0.965926 0.000000 -0.258819
vn -0.965926 0.000000 -0.258819
vn -0.965926 0.000000 -0.258819
vn -0.965926 0.000000 -0.258819
vn -0.965926 0.000000 0.258819
vn -0.965926 0.000000 0.258819
vn -0.965926 0.000000 0.258819
vn -0.965926 0.000000 0.258819
vn -0.707107 0.000000 0.707107
vn -0.707107 0.000000 0.707107
vn -0.707106 0.000000 0.707107
vn -0.707106 0.000000 0.707107
vn -0.258819 0.000000 0.965926
vn -0.258819 0.000000 0.965926
vn -0.258819 0.000000 0.965926
vn -0.258819 0.000000 0.965926
vn 0.258819 0.000000 0.965926
vn 0.258819 0.000000 0.965926
vn 0.258819 0.000000 0.965926
vn 0.258819 0.000000 0.965926
vn 0.707107 0.000000 0.707107
vn 0.707107 0.000000 0.707107
vn 0.707107 0.000000 0.707106
vn 0.707107 0.000000 0.707106
vn 0.965926 0.000000 0.258819
vn 0.965926 0.000000 0.258819
vn 0.965926 0.000000 0.258819
vn 0.965926 0.000000 0.258819
vn 0.965926 0.000000 -0.258819
vn 0.965926 0.000000 -0.258819
vn 0.965926 0.000000 -0.258819
vn 0.965926 0.000000 -0.258819
vn -0.020203 -0.999728 0.011664
vn -0.011664 -0.999728 0.020203
vn -0.011664 -0.999728 0.020203
vn -0.020203 -0.999728 0.011664
vn -0.011664 0.999728 0.020203
vn -0.020203 0.999728 0.011664
vn -0.020203 0.999728 0.011664
vn -0.011664 0.999728 0.020203
vn 0.000000 -0.999728 0.023328
vn 0.000000 -0.999728 0.023328
vn 0.000000 0.999728 0.023328
vn 0.000000 0.999728 0.023328
vn 0.011664 -0.999728 0.020203
vn 0.011664 -0.999728 0.020203
vn 0.011664 0.999728 0.020203
vn 0.011664 0.999728 0.020203
vn 0.020203 -0.999728 0.011664
vn 0.020203 -0.999728 0.011664
vn 0.020203 0.999728 0.011664
vn 0.020203 0.999728 0.011664
vn 0.023328 -0.999728 0.000000
vn 0.023328 -0.999728 0.000000
vn 0.023328 0.999728 0.000000
vn 0.023328 0.999728 0.000000
vn 0.022237 -0.999729 -0.006947
vn 0.022237 -0.999729 -0.006947
vn 0.020203 0.999728 -0.011664
vn 0.020203 0.999728 -0.011664
vn 0.012717 -0.999849 -0.011823
vn 0.012717 -0.999849 -0.011823
vn 0.011664 0.999728 -0.020203
vn 0.011664 0.999728 -0.020203
vn -0.000000 -0.999872 -0.016002
vn -0.000000 -0.999872 -0.016002
vn 0.000000 0.999728 -0.023328
vn 0.000000 0.999728 -0.023328
vn -0.012717 -0.999849 -0.011823
vn -0.012717 -0.999849 -0.011823
vn -0.011664 0.999728 -0.020203
vn -0.011664 0.999728 -0.020203
vn -0.022237 -0.999729 -0.006947
vn -0.022237 -0.999729 -0.006947
vn -0.020203 0.999728 -0.011664
vn -0.020203 0.999728 -0.011664
vn -0.023328 -0.999728 0.000000
vn -0.023328 -0.999728 0.000000
vn -0.023328 0.999728 0.000000
vn -0.023328 0.999728 0.000000
vn 0.707107 0.000000 -0.707107
vn 0.707107 0.000000 -0.707107
vn -0.707107 0.000000 0.707107
vn -0.707107 0.000000 0.707107
vn -0.707107 0.000000 0.707107
vn -0.707107 0.000000 0.707107
vn 0.258819 0.000000 -0.965926
vn 0.258819 0.000000 -0.965926
vn -0.258819 0.000000 0.965926
vn -0.258819 0.000000 0.965926
vn -0.258819 0.000000 0.965926
vn -0.258819 0.000000 0.965926
vn -0.258819 0.000000 -0.965926
vn -0.258819 0.000000 -0.965926
vn 0.258819 0.000000 0.965926
vn 0.258819 0.000000 0.965926
vn 0.258819 0.000000 0.965926
vn 0.258819 0.000000 0.965926
vn -0.707107 0.000000 -0.707107
vn -0.707107 0.000000 -0.707107
vn 0.707107 0.000000 0.707107
vn 0.707107 0.000000 0.707107
vn 0.707107 0.000000 0.707107
vn 0.707107 0.000000 0.707107
vn -0.965926 0.000000 -0.258819
vn -0.965926 0.000000 -0.258819
vn 0.965926 0.000000 0.258819
vn 0.965926 0.000000 0.258819
vn 0.965926 0.000000 0.258819
vn 0.965926 0.000000 0.258819
vn -0.965926 0.000000 0.258819
vn -0.965926 0.000000 0.258819
vn 0.965926 0.000000 -0.258819
vn 0.965926 0.000000 -0.258819
vn 0.965926 0.000000 -0.258819
vn 0.965926 0.000000 -0.258819
vn -0.707107 0.000000 0.707107
vn -0.707107 0.000000 0.707107
vn 0.707107 0.000000 -0.707107
vn 0.707107 0.000000 -0.707107
vn 0.707107 0.000000 -0.707107
vn 0.707107 0.000000 -0.707107
vn -0.258819 0.000000 0.965926
vn -0.258819 0.000000 0.965926
vn 0.258819 0.000000 -0.965926
vn 0.258819 0.000000 -0.965926
vn 0.258819 0.000000 -0.965926
vn 0.258819 0.000000 -0.965926
vn 0.258819 0.000000 0.965926
vn 0.258819 0.000000 0.965926
vn -0.258819 0.000000 -0.965926
vn -0.258819 0.000000 -0.965926
vn -0.258819 0.000000 -0.965926
vn -0.258819 0.000000 -0.965926
vn 0.707107 0.000000 0.707107
vn 0.707107 0.000000 0.707107
vn -0.707107 0.000000 -0.707107
vn -0.707107 0.000000 -0.707107
vn -0.707107 0.000000 -0.707107
vn -0.707107 0.000000 -0.707107
vn 0.965926 0.000000 0.258819
vn 0.965926 0.000000 0.258819
vn -0.965926 0.000000 -0.258819
vn -0.965926 0.000000 -0.258819
vn -0.965926 0.000000 -0.258819
vn -0.965926 0.000000 -0.258819
vn 0.965926 0.000000 -0.258819
vn 0.965926 0.000000 -0.258819
vn -0.965926 0.000000 0.258819
vn -0.965926 0.000000 0.258819
vn -0.965926 0.000000 0.258819
vn -0.965926 0.000000 0.258819
s 1
g pCylinder1
usemtl lambert2SG
f 49/1/1 50/69/2 51/77/3 52/2/4
s 2
f 50/69/5 53/70/6 54/78/7 51/77/8
s 3
f 53/3/9 55/5/10 56/6/11 54/4/12
s 4
f 55/5/13 57/7/14 58/8/15 56/6/16
s 5
f 57/7/17 59/9/18 60/10/19 58/8/20
s 6
f 59/9/21 61/11/22 62/12/23 60/10/24
s 7
f 61/11/25 63/13/26 64/14/27 62/12/28
s 8
f 63/13/29 65/15/30 66/16/31 64/14/32
s 9
f 65/15/33 67/17/34 68/18/35 66/16/36
s 10
f 67/17/37 69/19/38 70/20/39 68/18/40
s 11
f 69/19/41 71/21/42 72/22/43 70/20/44
s 12
f 71/21/45 49/1/46 52/2/47 72/22/48
s 13
usemtl lambert3SG
f 1/23/49 2/26/50 26/27/51 25/29/52
s 14
f 14/31/53 13/33/54 28/35/55 27/37/56
s 13
f 2/26/50 3/39/57 29/41/58 26/27/51
s 14
f 15/43/59 14/31/53 27/37/56 30/45/60
s 13
f 3/39/57 4/47/61 31/49/62 29/41/58
s 14
f 16/51/63 15/43/59 30/45/60 32/53/64
s 13
f 4/47/61 5/55/65 33/57/66 31/49/62
s 14
f 17/59/67 16/51/63 32/53/64 34/61/68
s 13
f 5/55/65 6/63/69 35/65/70 33/57/66
s 14
f 18/67/71 17/59/67 34/61/68 36/71/72
s 13
f 6/63/69 7/72/73 37/73/74 35/65/70
s 14
f 19/79/75 18/67/71 36/71/72 38/80/76
s 13
f 7/72/73 8/81/77 39/82/78 37/73/74
s 14
f 20/83/79 19/79/75 38/80/76 40/84/80
s 13
f 8/81/77 9/85/81 41/86/82 39/82/78
s 14
f 21/87/83 20/83/79 40/84/80 42/88/84
s 13
f 9/85/81 10/89/85 43/90/86 41/86/82
s 14
f 22/91/87 21/87/83 42/88/84 44/92/88
s 13
f 10/89/85 11/93/89 45/94/90 43/90/86
s 14
f 23/95/91 22/91/87 44/92/88 46/96/92
s 13
f 11/93/89 12/97/93 47/98/94 45/94/90
s 14
f 24/99/95 23/95/91 46/96/92 48/100/96
s 13
f 12/97/93 1/23/49 25/29/52 47/98/94
s 14
f 13/33/54 24/99/95 48/100/96 28/35/55
s 1
usemtl lambert2SG
f 25/25/97 26/24/98 50/69/2 49/1/1
s off
f 27/76/99 28/28/100 52/2/101 51/77/102
s 2
f 26/24/103 29/75/104 53/70/6 50/69/5
s off
f 30/74/105 27/76/106 51/77/107 54/78/108
s 3
f 29/30/109 31/34/110 55/5/10 53/3/9
s off
f 32/36/111 30/32/112 54/4/113 56/6/114
s 4
f 31/34/115 33/38/116 57/7/14 55/5/13
s off
f 34/40/117 32/36/118 56/6/119 58/8/120
s 5
f 33/38/121 35/42/122 59/9/18 57/7/17
s off
f 36/44/123 34/40/124 58/8/125 60/10/126
s 6
f 35/42/127 37/46/128 61/11/22 59/9/21
s off
f 38/48/129 36/44/130 60/10/131 62/12/132
s 7
f 37/46/133 39/50/134 63/13/26 61/11/25
s off
f 40/52/135 38/48/136 62/12/137 64/14/138
s 8
f 39/50/139 41/54/140 65/15/30 63/13/29
s off
f 42/56/141 40/52/142 64/14/143 66/16/144
s 9
f 41/54/145 43/58/146 67/17/34 65/15/33
s off
f 44/60/147 42/56/148 66/16/149 68/18/150
s 10
f 43/58/151 45/62/152 69/19/38 67/17/37
s off
f 46/64/153 44/60/154 68/18/155 70/20/156
s 11
f 45/62/157 47/66/158 71/21/42 69/19/41
s off
f 48/68/159 46/64/160 70/20/161 72/22/162
s 12
f 47/66/163 25/25/164 49/1/46 71/21/45
s off
f 28/28/165 48/68/166 72/22/167 52/2/168
