# This file uses centimeters as units for non-parametric coordinates.

mtllib holy_arena.mtl
g default
v 3.062093 0.564564 -13.847527
v 1.557393 0.564564 -15.352227
v -0.498065 0.564564 -15.902985
v -2.553523 0.564564 -15.352227
v -4.058224 0.564564 -13.847527
v -4.608981 0.564564 -11.792069
v -4.058224 0.564564 -9.736611
v -2.553523 0.564564 -8.231910
v -0.498065 0.564564 -7.681153
v 1.557393 0.564564 -8.231910
v 3.062093 0.564564 -9.736611
v 3.612851 0.564564 -11.792069
v 3.062093 0.770110 -13.847527
v 1.557393 0.770110 -15.352227
v -0.498065 0.770110 -15.902985
v -2.553523 0.770110 -15.352227
v -4.058224 0.770110 -13.847527
v -4.608981 0.770110 -11.792069
v -4.058224 0.770110 -9.736611
v -2.553523 0.770110 -8.231910
v -0.498065 0.770110 -7.681153
v 1.557393 0.770110 -8.231910
v 3.062093 0.770110 -9.736611
v 3.612851 0.770110 -11.792069
v 17.804679 0.167337 -11.327139
v 10.069030 0.167337 -19.062787
v 10.069030 1.167337 -19.062787
v 17.804679 1.167337 -11.327139
v -0.498065 0.167337 -21.894233
v -0.498065 1.167337 -21.894233
v -11.065161 0.167337 -19.062787
v -11.065161 1.167337 -19.062787
v -18.800809 0.167337 -11.327139
v -18.800809 1.167337 -11.327139
v -21.632255 0.167337 -0.760043
v -21.632255 1.167337 -0.760043
v -18.800809 0.167337 9.807052
v -18.800809 1.167337 9.807052
v -11.065161 0.292128 17.542700
v -11.065161 1.167337 17.542700
v -0.498065 0.292128 20.374146
v -0.498065 1.167337 20.374146
v 10.069030 0.292128 17.542700
v 10.069030 1.167337 17.542700
v 17.804679 0.167337 9.807052
v 17.804679 1.167337 9.807052
v 20.636124 0.167337 -0.760043
v 20.636124 1.167337 -0.760043
v 17.804679 22.221315 -11.327139
v 10.069030 22.221315 -19.062787
v 10.069030 23.379129 -19.062787
v 17.804679 23.379129 -11.327139
v -0.498065 22.221315 -21.894233
v -0.498065 23.379129 -21.894233
v -11.065161 22.221315 -19.062787
v -11.065161 23.379129 -19.062787
v -18.800809 22.221315 -11.327139
v -18.800809 23.379129 -11.327139
v -21.632255 22.221315 -0.760043
v -21.632255 23.379129 -0.760043
v -18.800809 22.221315 9.807052
v -18.800809 23.379129 9.807052
v -11.065161 8.394731 17.542700
v -11.065161 8.820112 17.542700
v -0.498065 8.394731 20.374146
v -0.498065 8.820112 20.374146
v 10.069030 8.394731 17.542700
v 10.069030 8.820112 17.542700
v 17.804679 22.221315 9.807052
v 17.804679 23.379129 9.807052
v 20.636124 22.221315 -0.760043
v 20.636124 23.379129 -0.760043
vt 0.584228 0.809628
vt 0.548629 0.845227
vt 0.750000 0.933013
vt 0.933013 0.750000
vt 0.548629 0.845227
vt 0.584228 0.809628
vt 0.933013 0.750000
vt 0.750000 0.933013
vt 0.500000 0.858257
vt 0.500000 1.000000
vt 0.500000 0.858257
vt 0.500000 1.000000
vt 0.451371 0.845227
vt 0.250000 0.933013
vt 0.451371 0.845227
vt 0.250000 0.933013
vt 0.415773 0.809628
vt 0.066987 0.750000
vt 0.415773 0.809628
vt 0.066987 0.750000
vt 0.402743 0.760999
vt 0.000000 0.500000
vt 0.402743 0.760999
vt 0.000000 0.500000
vt 0.415773 0.712371
vt 0.066987 0.250000
vt 0.415773 0.712371
vt 0.066987 0.250000
vt 0.451371 0.676772
vt 0.250000 0.066987
vt 0.451371 0.676772
vt 0.250000 0.066987
vt 0.500000 0.663742
vt 0.500000 0.000000
vt 0.500000 0.663742
vt 0.500000 0.000000
vt 0.548629 0.676772
vt 0.750000 0.066987
vt 0.548629 0.676772
vt 0.750000 0.066987
vt 0.584228 0.712371
vt 0.933013 0.250000
vt 0.584228 0.712371
vt 0.933013 0.250000
vt 0.597258 0.760999
vt 1.000000 0.500000
vt 0.597258 0.760999
vt 1.000000 0.500000
vt 2.259804 1.000000
vt 2.259804 -0.000000
vt 0.980141 1.000000
vt 1.242707 1.000000
vt 0.375000 0.312500
vt 0.395833 0.312500
vt 0.395833 0.688440
vt 0.375000 0.688440
vt 0.416667 0.312500
vt 0.416667 0.688440
vt 0.437500 0.312500
vt 0.437500 0.688440
vt 0.458333 0.312500
vt 0.458333 0.688440
vt 0.479167 0.312500
vt 0.479167 0.688440
vt 0.500000 0.312500
vt 0.500000 0.688440
vt 0.181836 0.950120
vt 0.340933 0.354449
vt 0.340933 0.372775
vt 0.181836 1.000000
vt 0.500030 0.354449
vt 0.500030 0.372775
vt 0.583333 0.312500
vt 0.583333 0.688440
vt 0.604167 0.312500
vt 0.604167 0.688440
vt 0.625000 0.312500
vt 0.625000 0.688440
vt 0.659128 0.354449
vt 0.659128 0.372775
vt 0.818225 0.950120
vt 0.818225 1.000000
vt 1.537351 -0.000000
vt 1.877893 -0.000000
vt 1.877893 1.000000
vt 1.537351 1.000000
vt 1.136419 0.043082
vt 1.136419 1.000000
vt -1.259692 -0.000000
vt -1.259692 1.000000
vt -0.454553 0.043082
vt -0.454553 1.000000
vt -0.877781 -0.000000
vt -0.877781 1.000000
vt -0.295456 0.043082
vt -0.295456 1.000000
vt -0.537239 -0.000000
vt -0.537239 1.000000
vt -0.136359 0.043082
vt -0.136359 1.000000
vt -0.242595 -0.000000
vt -0.242595 1.000000
vt 0.022739 0.043082
vt 0.022739 1.000000
vt 0.181836 -0.000000
vt 0.181836 0.043082
vt 0.340933 0.005376
vt 0.340933 0.043082
vt 0.500030 0.005376
vt 0.500030 0.043082
vt 0.659128 0.005376
vt 0.659128 0.043082
vt 0.818225 -0.000000
vt 0.818225 0.043082
vt 0.019971 -0.000000
vt 0.019971 1.000000
vt 0.977322 0.043082
vt 0.977322 1.000000
vt 0.980141 -0.000000
vt 1.242707 -0.000000
vt 1.454614 0.043082
vt 1.295516 0.043082
vt 1.295516 1.000000
vt 1.454614 1.000000
vn 0.707107 0.000000 -0.707107
vn 0.707107 0.000000 -0.707107
vn 0.707107 0.000000 -0.707107
vn 0.707107 0.000000 -0.707107
vn 0.258819 0.000000 -0.965926
vn 0.258819 0.000000 -0.965926
vn 0.258819 0.000000 -0.965926
vn 0.258819 0.000000 -0.965926
vn -0.258819 0.000000 -0.965926
vn -0.258819 0.000000 -0.965926
vn -0.258819 0.000000 -0.965926
vn -0.258819 0.000000 -0.965926
vn -0.707107 0.000000 -0.707107
vn -0.707107 0.000000 -0.707107
vn -0.707107 0.000000 -0.707107
vn -0.707107 0.000000 -0.707107
vn -0.965926 0.000000 -0.258819
vn -0.965926 0.000000 -0.258819
vn -0.965926 0.000000 -0.258819
vn -0.965926 0.000000 -0.258819
vn -0.965926 0.000000 0.258819
vn -0.965926 0.000000 0.258819
vn -0.965926 0.000000 0.258819
vn -0.965926 0.000000 0.258819
vn -0.707107 0.000000 0.707107
vn -0.707107 0.000000 0.707107
vn -0.707106 0.000000 0.707107
vn -0.707106 0.000000 0.707107
vn -0.258819 0.000000 0.965926
vn -0.258819 0.000000 0.965926
vn -0.258819 0.000000 0.965926
vn -0.258819 0.000000 0.965926
vn 0.258819 0.000000 0.965926
vn 0.258819 0.000000 0.965926
vn 0.258819 0.000000 0.965926
vn 0.258819 0.000000 0.965926
vn 0.707107 0.000000 0.707107
vn 0.707107 0.000000 0.707107
vn 0.707107 0.000000 0.707106
vn 0.707107 0.000000 0.707106
vn 0.965926 0.000000 0.258819
vn 0.965926 0.000000 0.258819
vn 0.965926 0.000000 0.258819
vn 0.965926 0.000000 0.258819
vn 0.965926 0.000000 -0.258819
vn 0.965926 0.000000 -0.258819
vn 0.965926 0.000000 -0.258819
vn 0.965926 0.000000 -0.258819
vn -0.030348 -0.999339 0.020016
vn -0.025099 -0.998468 0.049314
vn -0.025099 -0.998468 0.049314
vn -0.030348 -0.999339 0.020016
vn -0.025099 0.998468 0.049314
vn -0.030348 0.999339 0.020016
vn -0.030348 0.999339 0.020016
vn -0.025099 0.998468 0.049314
vn -0.000000 -0.997809 0.066156
vn -0.000000 -0.997809 0.066156
vn 0.000000 0.997809 0.066156
vn 0.000000 0.997809 0.066156
vn 0.025099 -0.998468 0.049314
vn 0.025099 -0.998468 0.049314
vn 0.025099 0.998468 0.049314
vn 0.025099 0.998468 0.049314
vn 0.030348 -0.999339 0.020016
vn 0.030348 -0.999339 0.020016
vn 0.030348 0.999339 0.020016
vn 0.030348 0.999339 0.020016
vn 0.024052 -0.999710 0.001118
vn 0.024052 -0.999710 0.001118
vn 0.024052 0.999710 0.001118
vn 0.024052 0.999710 0.001118
vn 0.019283 -0.999800 -0.005256
vn 0.019283 -0.999800 -0.005256
vn 0.015731 0.999841 -0.008455
vn 0.015731 0.999841 -0.008455
vn 0.010645 -0.999916 -0.007448
vn 0.010645 -0.999916 -0.007448
vn 0.007689 0.999888 -0.012871
vn 0.007689 0.999888 -0.012871
vn 0.000000 -0.999953 -0.009710
vn 0.000000 -0.999953 -0.009710
vn 0.000000 0.999900 -0.014157
vn 0.000000 0.999900 -0.014157
vn -0.010645 -0.999916 -0.007448
vn -0.010645 -0.999916 -0.007448
vn -0.007689 0.999888 -0.012871
vn -0.007689 0.999888 -0.012871
vn -0.019283 -0.999800 -0.005256
vn -0.019283 -0.999800 -0.005256
vn -0.015731 0.999841 -0.008455
vn -0.015731 0.999841 -0.008455
vn -0.024052 -0.999710 0.001118
vn -0.024052 -0.999710 0.001118
vn -0.024052 0.999710 0.001118
vn -0.024052 0.999710 0.001118
vn 0.707107 0.000000 -0.707107
vn 0.707107 0.000000 -0.707107
vn -0.707107 0.000000 0.707107
vn -0.707107 0.000000 0.707107
vn -0.707107 0.000000 0.707107
vn -0.707107 0.000000 0.707107
vn 0.258819 0.000000 -0.965926
vn 0.258819 0.000000 -0.965926
vn -0.258819 0.000000 0.965926
vn -0.258819 0.000000 0.965926
vn -0.258819 0.000000 0.965926
vn -0.258819 0.000000 0.965926
vn -0.258819 0.000000 -0.965926
vn -0.258819 0.000000 -0.965926
vn 0.258819 0.000000 0.965926
vn 0.258819 0.000000 0.965926
vn 0.258819 0.000000 0.965926
vn 0.258819 0.000000 0.965926
vn -0.707107 0.000000 -0.707107
vn -0.707107 0.000000 -0.707107
vn 0.707107 0.000000 0.707107
vn 0.707107 0.000000 0.707107
vn 0.707107 0.000000 0.707107
vn 0.707107 0.000000 0.707107
vn -0.965926 0.000000 -0.258819
vn -0.965926 0.000000 -0.258819
vn 0.965926 0.000000 0.258819
vn 0.965926 0.000000 0.258819
vn 0.965926 0.000000 0.258819
vn 0.965926 0.000000 0.258819
vn -0.965926 0.000000 0.258819
vn -0.965926 0.000000 0.258819
vn 0.965926 0.000000 -0.258819
vn 0.965926 0.000000 -0.258819
vn 0.965926 0.000000 -0.258819
vn 0.965926 0.000000 -0.258819
vn -0.707107 0.000000 0.707107
vn -0.707107 0.000000 0.707107
vn 0.707107 0.000000 -0.707107
vn 0.707107 0.000000 -0.707107
vn 0.707107 0.000000 -0.707107
vn 0.707107 0.000000 -0.707107
vn -0.258819 0.000000 0.965926
vn -0.258819 0.000000 0.965926
vn 0.258819 0.000000 -0.965926
vn 0.258819 0.000000 -0.965926
vn 0.258819 0.000000 -0.965926
vn 0.258819 0.000000 -0.965926
vn 0.258819 0.000000 0.965926
vn 0.258819 0.000000 0.965926
vn -0.258819 0.000000 -0.965926
vn -0.258819 0.000000 -0.965926
vn -0.258819 0.000000 -0.965926
vn -0.258819 0.000000 -0.965926
vn 0.707107 0.000000 0.707107
vn 0.707107 0.000000 0.707107
vn -0.707107 0.000000 -0.707107
vn -0.707107 0.000000 -0.707107
vn -0.707107 0.000000 -0.707107
vn -0.707107 0.000000 -0.707107
vn 0.965926 0.000000 0.258819
vn 0.965926 0.000000 0.258819
vn -0.965926 0.000000 -0.258819
vn -0.965926 0.000000 -0.258819
vn -0.965926 0.000000 -0.258819
vn -0.965926 0.000000 -0.258819
vn 0.965926 0.000000 -0.258819
vn 0.965926 0.000000 -0.258819
vn -0.965926 0.000000 0.258819
vn -0.965926 0.000000 0.258819
vn -0.965926 0.000000 0.258819
vn -0.965926 0.000000 0.258819
s 1
g pCylinder1
usemtl initialShadingGroup
f 49/53/1 50/54/2 51/55/3 52/56/4
s 2
f 50/54/5 53/57/6 54/58/7 51/55/8
s 3
f 53/57/9 55/59/10 56/60/11 54/58/12
s 4
f 55/59/13 57/61/14 58/62/15 56/60/16
s 5
f 57/61/17 59/63/18 60/64/19 58/62/20
s 6
f 59/63/21 61/65/22 62/66/23 60/64/24
s 7
f 61/67/25 63/68/26 64/69/27 62/70/28
s 8
f 63/68/29 65/71/30 66/72/31 64/69/32
s 9
f 65/71/33 67/79/34 68/80/35 66/72/36
s 10
f 67/79/37 69/81/38 70/82/39 68/80/40
s 11
f 69/73/41 71/75/42 72/76/43 70/74/44
s 12
f 71/75/45 49/77/46 52/78/47 72/76/48
s 13
usemtl lambert3SG
f 1/1/49 2/2/50 26/3/51 25/4/52
s 14
f 14/5/53 13/6/54 28/7/55 27/8/56
s 13
f 2/2/50 3/9/57 29/10/58 26/3/51
s 14
f 15/11/59 14/5/53 27/8/56 30/12/60
s 13
f 3/9/57 4/13/61 31/14/62 29/10/58
s 14
f 16/15/63 15/11/59 30/12/60 32/16/64
s 13
f 4/13/61 5/17/65 33/18/66 31/14/62
s 14
f 17/19/67 16/15/63 32/16/64 34/20/68
s 13
f 5/17/65 6/21/69 35/22/70 33/18/66
s 14
f 18/23/71 17/19/67 34/20/68 36/24/72
s 13
f 6/21/69 7/25/73 37/26/74 35/22/70
s 14
f 19/27/75 18/23/71 36/24/72 38/28/76
s 13
f 7/25/73 8/29/77 39/30/78 37/26/74
s 14
f 20/31/79 19/27/75 38/28/76 40/32/80
s 13
f 8/29/77 9/33/81 41/34/82 39/30/78
s 14
f 21/35/83 20/31/79 40/32/80 42/36/84
s 13
f 9/33/81 10/37/85 43/38/86 41/34/82
s 14
f 22/39/87 21/35/83 42/36/84 44/40/88
s 13
f 10/37/85 11/41/89 45/42/90 43/38/86
s 14
f 23/43/91 22/39/87 44/40/88 46/44/92
s 13
f 11/41/89 12/45/93 47/46/94 45/42/90
s 14
f 24/47/95 23/43/91 46/44/92 48/48/96
s 13
f 12/45/93 1/1/49 25/4/52 47/46/94
s 14
f 13/6/54 24/47/95 48/48/96 28/7/55
s 1
usemtl lambert2SG
f 25/83/97 26/84/98 50/85/2 49/86/1
s off
usemtl initialShadingGroup
f 27/122/99 28/87/100 52/88/101 51/123/102
s 2
usemtl lambert2SG
f 26/84/103 29/50/104 53/49/6 50/85/5
s off
usemtl initialShadingGroup
f 30/121/105 27/122/106 51/123/107 54/124/108
s 3
usemtl lambert2SG
f 29/89/109 31/93/110 55/94/10 53/90/9
s off
usemtl initialShadingGroup
f 32/95/111 30/91/112 54/92/113 56/96/114
s 4
usemtl lambert2SG
f 31/93/115 33/97/116 57/98/14 55/94/13
s off
usemtl initialShadingGroup
f 34/99/117 32/95/118 56/96/119 58/100/120
s 5
usemtl lambert2SG
f 33/97/121 35/101/122 59/102/18 57/98/17
s off
usemtl initialShadingGroup
f 36/103/123 34/99/124 58/100/125 60/104/126
s 6
usemtl lambert2SG
f 35/101/127 37/115/128 61/116/22 59/102/21
s off
usemtl initialShadingGroup
f 38/106/129 36/103/130 60/104/131 62/70/132
s 7
f 37/105/133 39/107/134 63/68/26 61/67/25
s off
f 40/108/135 38/106/136 62/70/137 64/69/138
s 8
f 39/107/139 41/109/140 65/71/30 63/68/29
s off
f 42/110/141 40/108/142 64/69/143 66/72/144
s 9
f 41/109/145 43/111/146 67/79/34 65/71/33
s off
f 44/112/147 42/110/148 66/72/149 68/80/150
s 10
f 43/111/151 45/113/152 69/81/38 67/79/37
s off
f 46/114/153 44/112/154 68/80/155 70/82/156
s 11
usemtl lambert2SG
f 45/119/157 47/120/158 71/52/42 69/51/41
s off
usemtl initialShadingGroup
f 48/117/159 46/114/160 70/82/161 72/118/162
s 12
usemtl lambert2SG
f 47/120/163 25/83/164 49/86/46 71/52/45
s off
usemtl initialShadingGroup
f 28/87/165 48/117/166 72/118/167 52/88/168
